<svg xmlns="http://www.w3.org/2000/svg" xmlns:xlink="http://www.w3.org/1999/xlink"><defs><clipPath id="a"><path fill="#fff" transform="translate(.817 .676)" d="M0 0h25.324v25.324H0z"/></clipPath><clipPath id="a"><path fill="#fff" transform="translate(0 .648)" d="M0 0h26.141v26.141H0z"/></clipPath></defs><symbol id="icon-facebook"><path d="M25.46 13.887c0-6.388-5.185-11.573-11.573-11.573C7.5 2.314 2.314 7.5 2.314 13.887c0 5.601 3.982 10.265 9.259 11.341V17.36H9.258v-3.472h2.315v-2.893a4.055 4.055 0 0 1 4.05-4.05h2.893v3.471h-2.314a1.16 1.16 0 0 0-1.158 1.158v2.314h3.472v3.472h-3.471v8.043c5.844-.579 10.415-5.509 10.415-11.515Z"/></symbol><symbol id="icon-instagram"><path d="M25.337 6.558v14.323a5.092 5.092 0 0 1-5.092 5.092H5.922A5.092 5.092 0 0 1 .83 20.881V6.558a5.092 5.092 0 0 1 5.092-5.092h14.323a5.092 5.092 0 0 1 5.092 5.092Zm-14.85 14.105c6.045 2.086 11.626-3.495 9.54-9.54a7.03 7.03 0 0 0-4.348-4.347C9.634 4.69 4.054 10.27 6.14 16.316a7.03 7.03 0 0 0 4.348 4.347ZM4.58 6.31a.958.958 0 0 0 1.729.387.96.96 0 0 0 .038-1.018.945.945 0 0 0-.578-.443.943.943 0 0 0-.722.095.96.96 0 0 0-.467.98Z" fill="#D0D0D0"/><path d="M13.083 7.766a5.96 5.96 0 0 1 5.954 5.953 5.96 5.96 0 0 1-5.954 5.954 5.96 5.96 0 0 1-5.953-5.954 5.96 5.96 0 0 1 5.953-5.953Z"/></symbol><symbol id="icon-linkedin"><g clip-path="url(#a)"><path d="M26.14 16.075v9.362h-5.427v-8.735c0-2.195-.785-3.692-2.75-3.692-1.5 0-2.392 1.01-2.785 1.986-.143.348-.18.834-.18 1.323v9.118h-5.43s.074-14.795 0-16.327h5.43v2.314l-.036.053h.036v-.053c.721-1.111 2.01-2.698 4.893-2.698 3.572 0 6.25 2.334 6.25 7.349ZM3.89 1.239c-1.858 0-3.073 1.218-3.073 2.82 0 1.568 1.18 2.823 3 2.823h.036c1.894 0 3.071-1.255 3.071-2.823C6.89 2.457 5.747 1.24 3.89 1.24ZM1.14 25.437h5.427V9.11H1.139v16.327Z"/></g></symbol><symbol id="icon-twitter"><g clip-path="url(#a)"><path d="M26.14 5.613c-.971.426-2.007.71-3.087.846a5.33 5.33 0 0 0 2.357-2.962 10.71 10.71 0 0 1-3.398 1.298 5.357 5.357 0 0 0-9.27 3.665c0 .424.036.832.124 1.221C8.411 9.464 4.468 7.33 1.82 4.076a5.395 5.395 0 0 0-.734 2.708c0 1.856.956 3.502 2.38 4.454a5.293 5.293 0 0 1-2.42-.66v.059a5.384 5.384 0 0 0 4.293 5.266c-.436.119-.911.176-1.405.176-.343 0-.69-.02-1.014-.091.694 2.122 2.664 3.682 5.007 3.733a10.768 10.768 0 0 1-6.644 2.286c-.44 0-.861-.02-1.283-.074a15.087 15.087 0 0 0 8.221 2.405c9.862 0 15.253-8.169 15.253-15.25 0-.237-.008-.465-.02-.693a10.69 10.69 0 0 0 2.687-2.782Z"/></g></symbol></svg>