<svg width="18" height="16" fill="none" xmlns="http://www.w3.org/2000/svg"><path d="M11.607 10.214a2.774 2.774 0 1 0 0-5.547 2.774 2.774 0 0 0 0 5.547Z" fill="#FFDC64"/><path d="M11.268 3.568a.474.474 0 0 1-.514-.431l-.144-1.654a.475.475 0 0 1 .945-.082l.144 1.653a.474.474 0 0 1-.43.514Z" fill="#FFD15B"/><path d="M11.268 3.568a.474.474 0 0 1-.514-.431l-.144-1.654a.475.475 0 0 1 .945-.082l.144 1.653a.474.474 0 0 1-.43.514ZM15.4 7.035a.475.475 0 0 1 .43-.514l1.654-.145a.474.474 0 1 1 .083.945l-1.653.145a.474.474 0 0 1-.514-.431ZM14.522 9.819a.474.474 0 0 1 .668-.059l1.272 1.067a.474.474 0 1 1-.61.727l-1.272-1.067a.474.474 0 0 1-.058-.668Z" fill="#FFD15B"/><path d="M14.522 9.819a.474.474 0 0 1 .668-.059l1.272 1.067a.474.474 0 1 1-.61.727l-1.272-1.067a.474.474 0 0 1-.058-.668ZM6.68 3.24a.474.474 0 0 1 .67-.06l1.27 1.067a.474.474 0 0 1-.61.727L6.74 3.908a.474.474 0 0 1-.06-.669ZM15.729 2.448c.2.168.226.467.058.668L14.72 4.387a.474.474 0 0 1-.727-.61l1.067-1.271a.474.474 0 0 1 .668-.058Z" fill="#FFD15B"/><path d="M12.655 10.79a2.49 2.49 0 0 0-3.073-2.598 3.338 3.338 0 0 0-6.59.864 2.988 2.988 0 0 0-.12 5.974v.002h9.6a2.125 2.125 0 0 0 .183-4.241Z" fill="#D8ECFE"/><path d="M12.655 10.79a2.49 2.49 0 0 0-3.073-2.598 3.338 3.338 0 0 0-4.416-2.404 3.338 3.338 0 0 1 3.184 2.61 2.49 2.49 0 0 1 3.073 2.598 2.125 2.125 0 0 1 .729 4.036h.32a2.125 2.125 0 0 0 .183-4.241Z" fill="#97CFFE"/></svg>