<svg xmlns="http://www.w3.org/2000/svg" viewBox="0 0 18.73 14.31"><defs><style>.cls-1{fill:#57c4f2}.cls-2{fill:#e84d0f}</style></defs><g id="Слой_2" data-name="Слой 2"><g id="Piktogramm"><path class="cls-1" d="M6.92 4.78a3 3 0 0 0-1.62 1 2 2 0 0 1-1.56.86 2 2 0 0 1-1.56-.86A2.76 2.76 0 0 0 0 4.71v.86a2 2 0 0 1 1.56.86 2.79 2.79 0 0 0 2.18 1.12 2.82 2.82 0 0 0 2.19-1.12 2.57 2.57 0 0 1 1-.77ZM18.73 6.69v.86a2.82 2.82 0 0 1-2.19-1.12 1.84 1.84 0 0 0-3.12 0 3.52 3.52 0 0 1-1.2.92 3.15 3.15 0 0 0-.41-.55v-.21a2.44 2.44 0 0 0 1-.76 2.7 2.7 0 0 1 4.38 0 2 2 0 0 0 1.54.86ZM6.09 9.63l-.16.16a2.8 2.8 0 0 1-2.19 1.13A2.76 2.76 0 0 1 1.56 9.8 2 2 0 0 0 0 9v-.92a2.76 2.76 0 0 1 2.18 1.13 2 2 0 0 0 1.56.86 2 2 0 0 0 1.56-.86 4.46 4.46 0 0 1 .78-.71 3.43 3.43 0 0 0 0 .56 2.69 2.69 0 0 0 .01.57ZM18.73 10.07v.86a2.8 2.8 0 0 1-2.19-1.13 1.86 1.86 0 0 0-3.12 0 3.34 3.34 0 0 1-1.16.91 3.14 3.14 0 0 0 .42-1.38l.11-.11a2.69 2.69 0 0 1 4.38 0 2 2 0 0 0 1.56.85ZM18.73 13.44v.87a2.8 2.8 0 0 1-2.19-1.13 1.84 1.84 0 0 0-3.12 0 2.8 2.8 0 0 1-2.19 1.13A2.8 2.8 0 0 1 9 13.18a2 2 0 0 0-1.55-.86 2 2 0 0 0-1.56.86 2.8 2.8 0 0 1-2.19 1.13 2.76 2.76 0 0 1-2.18-1.13A2 2 0 0 0 0 12.32v-.86a2.76 2.76 0 0 1 2.18 1.13 2 2 0 0 0 1.56.85 2 2 0 0 0 1.56-.85 2.94 2.94 0 0 1 1.79-1.1 3.31 3.31 0 0 0 2.28.9h.1l.2.21a2 2 0 0 0 1.56.85 2 2 0 0 0 1.56-.85 2.69 2.69 0 0 1 4.38 0 2 2 0 0 0 1.56.84Z"/><path class="cls-2" d="M11.37 7.54a2.4 2.4 0 0 0-.38-.4V1.62a1.63 1.63 0 0 0-3.25 0v5.52a2.5 2.5 0 0 0-.7 1 2.32 2.32 0 0 0-.19.94 2.51 2.51 0 0 0 4.2 1.85 2.43 2.43 0 0 0 .64-.91 2.48 2.48 0 0 0 .19-.95 2.55 2.55 0 0 0-.51-1.53Zm-2 3.17a1.65 1.65 0 0 1-1.65-1.65V9A1.63 1.63 0 0 1 8 8.14a1.4 1.4 0 0 1 .41-.43l.19-.13v-6a.76.76 0 0 1 .77-.72.75.75 0 0 1 .75.76v6l.19.13A1.62 1.62 0 0 1 11 9.06a1.66 1.66 0 0 1-.29.94 1.58 1.58 0 0 1-.76.59 1.45 1.45 0 0 1-.58.12Z"/><path class="cls-2" d="M10.07 9.15a.79.79 0 0 1-.1.37.72.72 0 0 1-.6.34.7.7 0 0 1-.37-.11 1.47 1.47 0 0 0-.21-.22.79.79 0 0 1-.1-.37.69.69 0 0 1 .31-.59.67.67 0 0 1 .39-.12.71.71 0 0 1 .68.7Z"/></g></g></svg>